<?xml version="1.0" encoding="utf-8"?>
<!-- Generator: Adobe Illustrator 24.0.1, SVG Export Plug-In . SVG Version: 6.00 Build 0)  -->
<svg version="1.1" id="Layer_1" xmlns="http://www.w3.org/2000/svg" xmlns:xlink="http://www.w3.org/1999/xlink" x="0px" y="0px"
	 viewBox="0 0 60 60" style="enable-background:new 0 0 60 60;" xml:space="preserve">
<style type="text/css">
	.st0{fill:#4F4F4F;}
	.st1{fill:#FFFFFF;}
</style>
<circle class="st0" cx="30" cy="30" r="29"/>
<path class="st1" d="M38.03,38.5h0.47c3.13,0,5.66-2.54,5.66-5.66H30.01V11.62h-1.41v21.22H14.45c0,1.24,0.4,2.39,1.07,3.32
	c0.44-0.21,0.88-0.41,1.33-0.59c-0.32-0.38-0.58-0.83-0.75-1.31h6.19c0.8-0.06,1.61-0.06,2.42,0H42.5c-0.58,1.65-2.15,2.83-4,2.83
	h-5.53C34.69,37.9,36.38,38.35,38.03,38.5L38.03,38.5z M44.16,31.42L31.42,18.69v12.73H44.16z M40.62,30.01h-7.78v-7.78L40.62,30.01
	z M18.69,19.4c4.24-7.07,8.49-7.78,8.49-7.78s-1.41,4.95-1.41,11.32c0,6.37,1.41,8.49,1.41,8.49H14.45
	C14.45,31.42,14.45,26.47,18.69,19.4z M19.25,21.25c-3.25,6.17-3.25,8.76-3.25,8.76h9.2c0,0-0.85-2.56-0.85-7.07
	c0-4.51,0.85-8.81,0.85-8.81S22.03,15.98,19.25,21.25L19.25,21.25z M11.62,39.91c0.61-0.45,1.27-0.9,1.99-1.32
	c5.7-3.4,11.94-4.19,18.14-0.71c5.69,3.2,11.01,2.49,15.73-0.64c0.88-0.59,1.66-1.21,2.34-1.84v1.87c-0.48,0.39-1,0.78-1.56,1.15
	c-5.12,3.4-11,4.18-17.21,0.69c-5.69-3.2-11.41-2.48-16.72,0.69c-1.01,0.6-1.91,1.25-2.7,1.89c0,0-0.01,0-0.01,0.01V39.91
	L11.62,39.91z M15.83,41.66c5.08-2.36,10.51-2.56,15.91,0.47c4.92,2.77,9.58,2.61,13.8,0.49v1.57c-4.45,2.03-9.36,2.07-14.49-0.82
	c-5.16-2.9-10.34-2.58-15.21-0.13V41.66L15.83,41.66z"/>
</svg>
